<svg width="26" height="25" viewBox="0 0 26 25" fill="none" xmlns="http://www.w3.org/2000/svg">
<path fill-rule="evenodd" clip-rule="evenodd" d="M11.8255 0.239372L0.57547 8.19392C0.270987 8.40921 0.0928955 8.74024 0.0928955 9.09091V21.5909C0.0928955 23.4737 1.77183 25 3.8429 25H21.3429C23.414 25 25.0929 23.4737 25.0929 21.5909V9.09091C25.0929 8.74024 24.9148 8.40921 24.6103 8.19392L13.3603 0.239372C12.9089 -0.0797908 12.2769 -0.0797908 11.8255 0.239372ZM12.5928 2.57504L22.5928 9.64663V21.5909C22.5928 22.2185 22.0332 22.7273 21.3428 22.7273H17.5928V12.4999L17.5844 12.3674C17.5122 11.8022 16.9839 11.3636 16.3428 11.3636H8.84282L8.69704 11.3712C8.07537 11.4369 7.59282 11.9172 7.59282 12.4999V22.7273H3.84282L3.69704 22.7197C3.07537 22.654 2.59282 22.1737 2.59282 21.5909V9.64549L12.5928 2.57504ZM10.0928 22.7273H15.0928V13.6363H10.0928V22.7273Z" fill="#C7C7C7"/>
</svg>
