<?xml version="1.0" encoding="UTF-8"?>
<!-- Generated by Pixelmator Pro 2.4.3 -->
<svg width="32" height="26" viewBox="0 0 32 26" xmlns="http://www.w3.org/2000/svg" xmlns:xlink="http://www.w3.org/1999/xlink">
    <g id="Layer2">
        <path id="path1" fill="#000000" stroke="none" d="M 4 25 C 3.868824 25.00338 3.738679 24.975981 3.62 24.92 C 3.246574 24.766596 3.002015 24.403702 3 24 L 3 5.779999 C 3.028848 4.482983 3.571921 3.250589 4.509676 2.354095 C 5.44743 1.457602 6.702998 0.970495 8 1 L 24 1 C 25.297001 0.970495 26.55257 1.457602 27.490324 2.354095 C 28.42808 3.250589 28.971151 4.482983 29 5.779999 L 29 15.219999 C 28.971151 16.517017 28.42808 17.749411 27.490324 18.645905 C 26.55257 19.542398 25.297001 20.029505 24 20 L 9.41 20 L 4.71 24.709999 C 4.521281 24.897186 4.265803 25.001537 4 25 Z M 8 3 C 6.405533 2.943659 5.065024 4.185863 5 5.779999 L 5 21.59 L 8.29 18.290001 C 8.478719 18.102814 8.734197 17.998463 9 18 L 24 18 C 25.594467 18.056341 26.934977 16.814137 27 15.219999 L 27 5.779999 C 26.934977 4.185863 25.594467 2.943659 24 3 Z"/>
        <path id="path2" fill="#000000" stroke="none" d="M 17.5 10.5 C 17.5 11.328426 16.828426 12 16 12 C 15.171573 12 14.5 11.328426 14.5 10.5 C 14.5 9.671574 15.171573 9 16 9 C 16.828426 9 17.5 9.671574 17.5 10.5 Z"/>
        <path id="path3" fill="#000000" stroke="none" d="M 23 10.5 C 23 11.328426 22.328426 12 21.5 12 C 20.671574 12 20 11.328426 20 10.5 C 20 9.671574 20.671574 9 21.5 9 C 22.328426 9 23 9.671574 23 10.5 Z"/>
        <path id="path4" fill="#000000" stroke="none" d="M 12 10.5 C 12 11.328426 11.328427 12 10.5 12 C 9.671573 12 9 11.328426 9 10.5 C 9 9.671574 9.671573 9 10.5 9 C 11.328427 9 12 9.671574 12 10.5 Z"/>
    </g>
    <g id="frame">
        <path id="path5" fill="none" stroke="none" d="M 0 -3 L 32 -3 L 32 29 L 0 29 Z"/>
    </g>
</svg>
