<svg width="25" height="24" viewBox="0 0 25 24" fill="none" xmlns="http://www.w3.org/2000/svg">
<path fill-rule="evenodd" clip-rule="evenodd" d="M16.0609 4.21741L22.5968 0.145327C23.2634 -0.270195 24.0929 0.254862 24.0929 1.09237V18.5446C24.0929 18.936 23.9006 19.2974 23.589 19.4916L16.6038 23.8455C16.4641 23.9362 16.3025 23.9908 16.1297 23.9977M16.0902 23.9984C16.0718 23.9983 16.0534 23.9977 16.035 23.9966C15.8888 23.9875 15.751 23.9441 15.6283 23.8737L8.1239 19.7815L1.58903 23.8547C0.955711 24.2494 0.175437 23.7953 0.0989926 23.0308L0.0928955 22.9076V5.45542C0.0928955 5.064 0.285182 4.70258 0.596757 4.50838L7.57966 0.155981C7.7297 0.0579352 7.90525 0.00157471 8.09287 0.00157471C8.26112 0.00157471 8.41965 0.0468941 8.55879 0.126952L16.0609 4.21741M17.0929 21.0263L22.0929 17.9097V2.97171L17.0929 6.08836V21.0263ZM15.0929 21.1418V6.12953L9.09287 2.85763V17.8703L15.0929 21.1418ZM2.09292 6.08802L7.09287 2.97184V17.9115L2.09292 21.0271V6.08802Z" fill="#C7C7C7"/>
</svg>
