<svg width="36" height="36" viewBox="0 0 36 36" fill="none" xmlns="http://www.w3.org/2000/svg">
<path d="M7.5 25.2917C7.5 25.1306 7.63058 25 7.79166 25L10.7083 25C10.8694 25 11 25.1306 11 25.2917L11 28.2083C11 28.3694 10.8694 28.5 10.7083 28.5L7.79166 28.5C7.63058 28.5 7.5 28.3694 7.5 28.2083L7.5 25.2917ZM28.5 25L27.625 25C27.1417 25 26.75 25.3917 26.75 25.875C26.75 26.3582 27.1417 26.75 27.625 26.75L28.5 26.75L28.5 28.5L27.625 28.5C27.1417 28.5 26.75 28.8917 26.75 29.375C26.75 29.8582 27.1417 30.25 27.625 30.25L29.375 30.25C29.8582 30.25 30.25 29.8582 30.25 29.375L30.25 22.375C30.25 21.8917 29.8582 21.5 29.375 21.5L27.625 21.5C27.1417 21.5 26.75 21.8917 26.75 22.375C26.75 22.8582 27.1417 23.25 27.625 23.25L28.5 23.25L28.5 25ZM16.25 19.75L16.25 20.625C16.25 21.1082 16.6417 21.5 17.125 21.5C17.6082 21.5 18 21.1082 18 20.625L18 17.125C18 16.6417 17.6082 16.25 17.125 16.25C16.6417 16.25 16.25 16.6417 16.25 17.125L16.25 18L14.5 18L14.5 15.375C14.5 14.8917 14.1082 14.5 13.625 14.5C13.1417 14.5 12.75 14.8917 12.75 15.375L12.75 20.625C12.75 21.1082 13.1417 21.5 13.625 21.5C14.1082 21.5 14.5 21.1082 14.5 20.625L14.5 19.75L16.25 19.75ZM18 28.5L18 27.625C18 27.1417 17.6082 26.75 17.125 26.75C16.6417 26.75 16.25 27.1417 16.25 27.625L16.25 28.5L15.375 28.5C14.8917 28.5 14.5 28.8917 14.5 29.375C14.5 29.8582 14.8917 30.25 15.375 30.25L18.875 30.25C19.3582 30.25 19.75 29.8582 19.75 29.375C19.75 28.8917 19.3582 28.5 18.875 28.5L18 28.5ZM21.5 19.75L21.5 18.875C21.5 18.3917 21.1082 18 20.625 18C20.1417 18 19.75 18.3917 19.75 18.875L19.75 20.625C19.75 21.1082 20.1417 21.5 20.625 21.5L24.125 21.5C24.6082 21.5 25 21.1082 25 20.625L25 15.375C25 14.8917 24.6082 14.5 24.125 14.5C23.6417 14.5 23.25 14.8917 23.25 15.375L23.25 19.75L21.5 19.75ZM5.75 25.2917L5.75 28.2083C5.75 29.3359 6.66408 30.25 7.79166 30.25L10.7083 30.25C11.8359 30.25 12.75 29.3359 12.75 28.2083L12.75 25.2917C12.75 24.1641 11.8359 23.25 10.7083 23.25L7.79166 23.25C6.66408 23.25 5.75 24.1641 5.75 25.2917ZM5.75 7.79167L5.75 10.7083C5.75 11.8359 6.66408 12.75 7.79167 12.75L10.7083 12.75C11.8359 12.75 12.75 11.8359 12.75 10.7083L12.75 7.79167C12.75 6.66408 11.8359 5.75 10.7083 5.75L7.79167 5.75C6.66408 5.75 5.75 6.66408 5.75 7.79167ZM7.5 7.79167C7.5 7.63058 7.63058 7.5 7.79167 7.5L10.7083 7.5C10.8694 7.5 11 7.63058 11 7.79167L11 10.7083C11 10.8694 10.8694 11 10.7083 11L7.79167 11C7.63058 11 7.5 10.8694 7.5 10.7083L7.5 7.79167ZM23.25 7.79167L23.25 10.7083C23.25 11.8359 24.1641 12.75 25.2917 12.75L28.2083 12.75C29.3359 12.75 30.25 11.8359 30.25 10.7083L30.25 7.79167C30.25 6.66409 29.3359 5.75 28.2083 5.75L25.2917 5.75C24.1641 5.75 23.25 6.66408 23.25 7.79167ZM25 7.79167C25 7.63058 25.1306 7.5 25.2917 7.5L28.2083 7.5C28.3694 7.5 28.5 7.63058 28.5 7.79167L28.5 10.7083C28.5 10.8694 28.3694 11 28.2083 11L25.2917 11C25.1306 11 25 10.8694 25 10.7083L25 7.79167ZM7.5 19.75L7.5 15.375C7.5 14.8917 7.10825 14.5 6.625 14.5C6.14175 14.5 5.75 14.8917 5.75 15.375L5.75 20.625C5.75 21.1082 6.14175 21.5 6.625 21.5L10.125 21.5C10.6082 21.5 11 21.1082 11 20.625C11 20.1417 10.6082 19.75 10.125 19.75L7.5 19.75ZM11 15.375C11 14.8917 10.6082 14.5 10.125 14.5C9.64175 14.5 9.25 14.8917 9.25 15.375L9.25 17.125C9.25 17.6082 9.64175 18 10.125 18C10.6082 18 11 17.6082 11 17.125L11 15.375ZM21.5 6.625C21.5 6.14175 21.1082 5.75 20.625 5.75C20.1417 5.75 19.75 6.14175 19.75 6.625L19.75 10.125C19.75 10.6082 20.1417 11 20.625 11C21.1082 11 21.5 10.6082 21.5 10.125L21.5 6.625ZM21.5 13.625C21.5 13.1418 21.1082 12.75 20.625 12.75C20.1417 12.75 19.75 13.1418 19.75 13.625L19.75 15.375C19.75 15.8582 20.1417 16.25 20.625 16.25C21.1082 16.25 21.5 15.8582 21.5 15.375L21.5 13.625ZM28.5 16.25L29.375 16.25C29.8582 16.25 30.25 15.8582 30.25 15.375C30.25 14.8917 29.8582 14.5 29.375 14.5L27.625 14.5C27.1417 14.5 26.75 14.8917 26.75 15.375L26.75 18.875C26.75 19.3582 27.1417 19.75 27.625 19.75C28.1082 19.75 28.5 19.3582 28.5 18.875L28.5 16.25ZM16.25 12.75L16.25 13.625C16.25 14.1082 16.6417 14.5 17.125 14.5C17.6082 14.5 18 14.1082 18 13.625L18 11.875C18 11.3918 17.6082 11 17.125 11L16.25 11L16.25 10.125C16.25 9.64175 15.8582 9.25 15.375 9.25C14.8917 9.25 14.5 9.64175 14.5 10.125L14.5 11.875C14.5 12.3582 14.8917 12.75 15.375 12.75L16.25 12.75ZM15.375 5.75C14.8917 5.75 14.5 6.14175 14.5 6.625C14.5 7.10825 14.8917 7.5 15.375 7.5L17.125 7.5C17.6082 7.5 18 7.10825 18 6.625C18 6.14175 17.6082 5.75 17.125 5.75L15.375 5.75ZM15.375 23.25C14.8917 23.25 14.5 23.6417 14.5 24.125C14.5 24.6082 14.8917 25 15.375 25L18.875 25C19.3582 25 19.75 24.6082 19.75 24.125C19.75 23.6417 19.3582 23.25 18.875 23.25L15.375 23.25ZM23.25 26.75L22.375 26.75C21.8917 26.75 21.5 27.1417 21.5 27.625L21.5 29.375C21.5 29.8582 21.8917 30.25 22.375 30.25C22.8582 30.25 23.25 29.8582 23.25 29.375L23.25 28.5L24.125 28.5C24.6082 28.5 25 28.1082 25 27.625L25 24.125C25 23.6417 24.6082 23.25 24.125 23.25L22.375 23.25C21.8917 23.25 21.5 23.6417 21.5 24.125C21.5 24.6082 21.8917 25 22.375 25L23.25 25L23.25 26.75ZM8.375 2.25C8.85825 2.25 9.25 1.85825 9.25 1.375C9.25 0.891751 8.85825 0.5 8.375 0.5L4.875 0.5C2.45875 0.5 0.5 2.45875 0.5 4.875L0.5 8.375C0.5 8.85825 0.89175 9.25 1.375 9.25C1.85825 9.25 2.25 8.85825 2.25 8.375L2.25 4.875C2.25 3.42525 3.42525 2.25 4.875 2.25L8.375 2.25ZM2.25 27.625C2.25 27.1417 1.85825 26.75 1.375 26.75C0.89175 26.75 0.499999 27.1417 0.499999 27.625L0.499999 31.125C0.499999 33.5412 2.45875 35.5 4.875 35.5L8.375 35.5C8.85825 35.5 9.25 35.1082 9.25 34.625C9.25 34.1417 8.85825 33.75 8.375 33.75L4.875 33.75C3.42525 33.75 2.25 32.5747 2.25 31.125L2.25 27.625ZM33.75 8.375C33.75 8.85825 34.1417 9.25 34.625 9.25C35.1082 9.25 35.5 8.85825 35.5 8.375L35.5 4.875C35.5 2.45876 33.5412 0.500001 31.125 0.500001L27.625 0.500001C27.1417 0.500001 26.75 0.891752 26.75 1.375C26.75 1.85825 27.1417 2.25 27.625 2.25L31.125 2.25C32.5747 2.25 33.75 3.42525 33.75 4.875L33.75 8.375ZM27.625 33.75C27.1417 33.75 26.75 34.1417 26.75 34.625C26.75 35.1082 27.1417 35.5 27.625 35.5L31.125 35.5C33.5412 35.5 35.5 33.5412 35.5 31.125L35.5 27.625C35.5 27.1417 35.1082 26.75 34.625 26.75C34.1417 26.75 33.75 27.1417 33.75 27.625L33.75 31.125C33.75 32.5747 32.5747 33.75 31.125 33.75L27.625 33.75Z" fill="#0085FF"/>
</svg>
