<?xml version="1.0" encoding="UTF-8"?>
<!-- Generated by Pixelmator Pro 2.4.3 -->
<svg width="72" height="89" viewBox="0 0 72 89" xmlns="http://www.w3.org/2000/svg" xmlns:xlink="http://www.w3.org/1999/xlink">
    <g id="g1">
        <linearGradient id="linearGradient1" x1="64.907" y1="100.5" x2="109.814" y2="32.778" gradientUnits="userSpaceOnUse">
            <stop offset="1e-05" stop-color="#4facfe" stop-opacity="1"/>
            <stop offset="1" stop-color="#00f2fe" stop-opacity="1"/>
        </linearGradient>
        <path id="path1" fill="url(#linearGradient1)" stroke="none" d="M 35.5 3 C 19.284801 3 6.092899 16.647095 6.092899 33.421501 C 6.092899 54.239098 32.409302 78.800499 33.5298 80.091003 C 34.582199 81.304001 36.419601 81.302002 37.4701 80.091003 C 38.590599 78.800499 64.906998 54.239098 64.906998 33.421501 C 64.9067 16.647095 51.714996 3 35.5 3 Z"/>
    </g>
    <path id="path2" fill="#0085ff" stroke="none" d="M 25.5 41.291702 C 25.5 41.1306 25.6306 41 25.791698 41 L 28.708302 41 C 28.8694 41 29 41.1306 29 41.291702 L 29 44.208298 C 29 44.3694 28.8694 44.5 28.708302 44.5 L 25.791698 44.5 C 25.6306 44.5 25.5 44.3694 25.5 44.208298 L 25.5 41.291702 Z M 46.5 41 L 45.625 41 C 45.141701 41 44.75 41.391701 44.75 41.875 C 44.75 42.3582 45.141701 42.75 45.625 42.75 L 46.5 42.75 L 46.5 44.5 L 45.625 44.5 C 45.141701 44.5 44.75 44.891701 44.75 45.375 C 44.75 45.8582 45.141701 46.25 45.625 46.25 L 47.375 46.25 C 47.8582 46.25 48.25 45.8582 48.25 45.375 L 48.25 38.375 C 48.25 37.891701 47.8582 37.5 47.375 37.5 L 45.625 37.5 C 45.141701 37.5 44.75 37.891701 44.75 38.375 C 44.75 38.8582 45.141701 39.25 45.625 39.25 L 46.5 39.25 L 46.5 41 Z M 34.25 35.75 L 34.25 36.625 C 34.25 37.1082 34.641701 37.5 35.125 37.5 C 35.6082 37.5 36 37.1082 36 36.625 L 36 33.125 C 36 32.641701 35.6082 32.25 35.125 32.25 C 34.641701 32.25 34.25 32.641701 34.25 33.125 L 34.25 34 L 32.5 34 L 32.5 31.375 C 32.5 30.891701 32.1082 30.5 31.625 30.5 C 31.141701 30.5 30.75 30.891701 30.75 31.375 L 30.75 36.625 C 30.75 37.1082 31.141701 37.5 31.625 37.5 C 32.1082 37.5 32.5 37.1082 32.5 36.625 L 32.5 35.75 L 34.25 35.75 Z M 36 44.5 L 36 43.625 C 36 43.141701 35.6082 42.75 35.125 42.75 C 34.641701 42.75 34.25 43.141701 34.25 43.625 L 34.25 44.5 L 33.375 44.5 C 32.891701 44.5 32.5 44.891701 32.5 45.375 C 32.5 45.8582 32.891701 46.25 33.375 46.25 L 36.875 46.25 C 37.3582 46.25 37.75 45.8582 37.75 45.375 C 37.75 44.891701 37.3582 44.5 36.875 44.5 L 36 44.5 Z M 39.5 35.75 L 39.5 34.875 C 39.5 34.391701 39.1082 34 38.625 34 C 38.141701 34 37.75 34.391701 37.75 34.875 L 37.75 36.625 C 37.75 37.1082 38.141701 37.5 38.625 37.5 L 42.125 37.5 C 42.6082 37.5 43 37.1082 43 36.625 L 43 31.375 C 43 30.891701 42.6082 30.5 42.125 30.5 C 41.641701 30.5 41.25 30.891701 41.25 31.375 L 41.25 35.75 L 39.5 35.75 Z M 23.75 41.291702 L 23.75 44.208298 C 23.75 45.335899 24.664101 46.25 25.791698 46.25 L 28.708302 46.25 C 29.835899 46.25 30.75 45.335899 30.75 44.208298 L 30.75 41.291702 C 30.75 40.164101 29.835899 39.25 28.708302 39.25 L 25.791698 39.25 C 24.664101 39.25 23.75 40.164101 23.75 41.291702 Z M 23.75 23.791702 L 23.75 26.708298 C 23.75 27.835899 24.664101 28.75 25.791698 28.75 L 28.708302 28.75 C 29.835899 28.75 30.75 27.835899 30.75 26.708298 L 30.75 23.791702 C 30.75 22.664101 29.835899 21.75 28.708302 21.75 L 25.791698 21.75 C 24.664101 21.75 23.75 22.664101 23.75 23.791702 Z M 25.5 23.791702 C 25.5 23.6306 25.6306 23.5 25.791698 23.5 L 28.708302 23.5 C 28.8694 23.5 29 23.6306 29 23.791702 L 29 26.708298 C 29 26.8694 28.8694 27 28.708302 27 L 25.791698 27 C 25.6306 27 25.5 26.8694 25.5 26.708298 L 25.5 23.791702 Z M 41.25 23.791702 L 41.25 26.708298 C 41.25 27.835899 42.164101 28.75 43.291702 28.75 L 46.208298 28.75 C 47.335899 28.75 48.25 27.835899 48.25 26.708298 L 48.25 23.791702 C 48.25 22.664101 47.335899 21.75 46.208298 21.75 L 43.291702 21.75 C 42.164101 21.75 41.25 22.664101 41.25 23.791702 Z M 43 23.791702 C 43 23.6306 43.1306 23.5 43.291702 23.5 L 46.208298 23.5 C 46.3694 23.5 46.5 23.6306 46.5 23.791702 L 46.5 26.708298 C 46.5 26.8694 46.3694 27 46.208298 27 L 43.291702 27 C 43.1306 27 43 26.8694 43 26.708298 L 43 23.791702 Z M 25.5 35.75 L 25.5 31.375 C 25.5 30.891701 25.1082 30.5 24.625 30.5 C 24.141701 30.5 23.75 30.891701 23.75 31.375 L 23.75 36.625 C 23.75 37.1082 24.141701 37.5 24.625 37.5 L 28.125 37.5 C 28.6082 37.5 29 37.1082 29 36.625 C 29 36.141701 28.6082 35.75 28.125 35.75 L 25.5 35.75 Z M 29 31.375 C 29 30.891701 28.6082 30.5 28.125 30.5 C 27.641701 30.5 27.25 30.891701 27.25 31.375 L 27.25 33.125 C 27.25 33.6082 27.641701 34 28.125 34 C 28.6082 34 29 33.6082 29 33.125 L 29 31.375 Z M 39.5 22.625 C 39.5 22.1418 39.1082 21.75 38.625 21.75 C 38.141701 21.75 37.75 22.1418 37.75 22.625 L 37.75 26.125 C 37.75 26.6082 38.141701 27 38.625 27 C 39.1082 27 39.5 26.6082 39.5 26.125 L 39.5 22.625 Z M 39.5 29.625 C 39.5 29.1418 39.1082 28.75 38.625 28.75 C 38.141701 28.75 37.75 29.1418 37.75 29.625 L 37.75 31.375 C 37.75 31.8582 38.141701 32.25 38.625 32.25 C 39.1082 32.25 39.5 31.8582 39.5 31.375 L 39.5 29.625 Z M 46.5 32.25 L 47.375 32.25 C 47.8582 32.25 48.25 31.8582 48.25 31.375 C 48.25 30.891701 47.8582 30.5 47.375 30.5 L 45.625 30.5 C 45.141701 30.5 44.75 30.891701 44.75 31.375 L 44.75 34.875 C 44.75 35.3582 45.141701 35.75 45.625 35.75 C 46.1082 35.75 46.5 35.3582 46.5 34.875 L 46.5 32.25 Z M 34.25 28.75 L 34.25 29.625 C 34.25 30.1082 34.641701 30.5 35.125 30.5 C 35.6082 30.5 36 30.1082 36 29.625 L 36 27.875 C 36 27.3918 35.6082 27 35.125 27 L 34.25 27 L 34.25 26.125 C 34.25 25.6418 33.8582 25.25 33.375 25.25 C 32.891701 25.25 32.5 25.641701 32.5 26.125 L 32.5 27.875 C 32.5 28.3582 32.891701 28.75 33.375 28.75 L 34.25 28.75 Z M 33.375 21.75 C 32.891701 21.75 32.5 22.1418 32.5 22.625 C 32.5 23.1082 32.891701 23.5 33.375 23.5 L 35.125 23.5 C 35.6082 23.5 36 23.1082 36 22.625 C 36 22.1418 35.6082 21.75 35.125 21.75 L 33.375 21.75 Z M 33.375 39.25 C 32.891701 39.25 32.5 39.641701 32.5 40.125 C 32.5 40.6082 32.891701 41 33.375 41 L 36.875 41 C 37.3582 41 37.75 40.6082 37.75 40.125 C 37.75 39.641701 37.3582 39.25 36.875 39.25 L 33.375 39.25 Z M 41.25 42.75 L 40.375 42.75 C 39.891701 42.75 39.5 43.141701 39.5 43.625 L 39.5 45.375 C 39.5 45.8582 39.891701 46.25 40.375 46.25 C 40.8582 46.25 41.25 45.8582 41.25 45.375 L 41.25 44.5 L 42.125 44.5 C 42.6082 44.5 43 44.1082 43 43.625 L 43 40.125 C 43 39.641701 42.6082 39.25 42.125 39.25 L 40.375 39.25 C 39.891701 39.25 39.5 39.641701 39.5 40.125 C 39.5 40.6082 39.891701 41 40.375 41 L 41.25 41 L 41.25 42.75 Z M 26.375 18.25 C 26.8582 18.25 27.25 17.8582 27.25 17.375 C 27.25 16.8918 26.8582 16.5 26.375 16.5 L 22.875 16.5 C 20.458801 16.5 18.5 18.458801 18.5 20.875 L 18.5 24.375 C 18.5 24.8582 18.8918 25.25 19.375 25.25 C 19.8582 25.25 20.25 24.8582 20.25 24.375 L 20.25 20.875 C 20.25 19.425301 21.425301 18.25 22.875 18.25 L 26.375 18.25 Z M 20.25 43.625 C 20.25 43.141701 19.8582 42.75 19.375 42.75 C 18.891701 42.75 18.5 43.141701 18.5 43.625 L 18.5 47.125 C 18.5 49.541199 20.458801 51.5 22.875 51.5 L 26.375 51.5 C 26.8582 51.5 27.25 51.1082 27.25 50.625 C 27.25 50.141701 26.8582 49.75 26.375 49.75 L 22.875 49.75 C 21.425301 49.75 20.25 48.574699 20.25 47.125 L 20.25 43.625 Z M 51.75 24.375 C 51.75 24.8582 52.141701 25.25 52.625 25.25 C 53.1082 25.25 53.5 24.8582 53.5 24.375 L 53.5 20.875 C 53.5 18.458801 51.541199 16.5 49.125 16.5 L 45.625 16.5 C 45.141701 16.5 44.75 16.8918 44.75 17.375 C 44.75 17.858299 45.141701 18.25 45.625 18.25 L 49.125 18.25 C 50.574699 18.25 51.75 19.425301 51.75 20.875 L 51.75 24.375 Z M 45.625 49.75 C 45.141701 49.75 44.75 50.141701 44.75 50.625 C 44.75 51.1082 45.141701 51.5 45.625 51.5 L 49.125 51.5 C 51.541199 51.5 53.5 49.541199 53.5 47.125 L 53.5 43.625 C 53.5 43.141701 53.1082 42.75 52.625 42.75 C 52.141701 42.75 51.75 43.141701 51.75 43.625 L 51.75 47.125 C 51.75 48.574699 50.574699 49.75 49.125 49.75 L 45.625 49.75 Z"/>
</svg>
