<svg width="139" height="158" viewBox="0 0 139 158" fill="none" xmlns="http://www.w3.org/2000/svg">
<g filter="url(#filter0_d_5_49)">
<path d="M69.5 24C53.2848 24 40.0929 37.6471 40.0929 54.4215C40.0929 75.2391 66.4093 99.8005 67.5298 101.091C68.5822 102.304 70.4196 102.302 71.4701 101.091C72.5906 99.8005 98.907 75.2391 98.907 54.4215C98.9067 37.6471 85.715 24 69.5 24Z" fill="url(#paint0_linear_5_49)"/>
</g>
<path d="M59.5 62.2917C59.5 62.1306 59.6306 62 59.7917 62L62.7083 62C62.8694 62 63 62.1306 63 62.2917L63 65.2083C63 65.3694 62.8694 65.5 62.7083 65.5L59.7917 65.5C59.6306 65.5 59.5 65.3694 59.5 65.2083L59.5 62.2917ZM80.5 62L79.625 62C79.1417 62 78.75 62.3917 78.75 62.875C78.75 63.3582 79.1417 63.75 79.625 63.75L80.5 63.75L80.5 65.5L79.625 65.5C79.1417 65.5 78.75 65.8917 78.75 66.375C78.75 66.8582 79.1417 67.25 79.625 67.25L81.375 67.25C81.8582 67.25 82.25 66.8582 82.25 66.375L82.25 59.375C82.25 58.8917 81.8582 58.5 81.375 58.5L79.625 58.5C79.1417 58.5 78.75 58.8917 78.75 59.375C78.75 59.8582 79.1417 60.25 79.625 60.25L80.5 60.25L80.5 62ZM68.25 56.75L68.25 57.625C68.25 58.1082 68.6417 58.5 69.125 58.5C69.6082 58.5 70 58.1082 70 57.625L70 54.125C70 53.6417 69.6082 53.25 69.125 53.25C68.6417 53.25 68.25 53.6417 68.25 54.125L68.25 55L66.5 55L66.5 52.375C66.5 51.8917 66.1082 51.5 65.625 51.5C65.1417 51.5 64.75 51.8917 64.75 52.375L64.75 57.625C64.75 58.1082 65.1417 58.5 65.625 58.5C66.1082 58.5 66.5 58.1082 66.5 57.625L66.5 56.75L68.25 56.75ZM70 65.5L70 64.625C70 64.1417 69.6082 63.75 69.125 63.75C68.6417 63.75 68.25 64.1417 68.25 64.625L68.25 65.5L67.375 65.5C66.8917 65.5 66.5 65.8917 66.5 66.375C66.5 66.8582 66.8917 67.25 67.375 67.25L70.875 67.25C71.3582 67.25 71.75 66.8582 71.75 66.375C71.75 65.8917 71.3582 65.5 70.875 65.5L70 65.5ZM73.5 56.75L73.5 55.875C73.5 55.3917 73.1082 55 72.625 55C72.1417 55 71.75 55.3917 71.75 55.875L71.75 57.625C71.75 58.1082 72.1417 58.5 72.625 58.5L76.125 58.5C76.6082 58.5 77 58.1082 77 57.625L77 52.375C77 51.8917 76.6082 51.5 76.125 51.5C75.6417 51.5 75.25 51.8917 75.25 52.375L75.25 56.75L73.5 56.75ZM57.75 62.2917L57.75 65.2083C57.75 66.3359 58.6641 67.25 59.7917 67.25L62.7083 67.25C63.8359 67.25 64.75 66.3359 64.75 65.2083L64.75 62.2917C64.75 61.1641 63.8359 60.25 62.7083 60.25L59.7917 60.25C58.6641 60.25 57.75 61.1641 57.75 62.2917ZM57.75 44.7917L57.75 47.7083C57.75 48.8359 58.6641 49.75 59.7917 49.75L62.7083 49.75C63.8359 49.75 64.75 48.8359 64.75 47.7083L64.75 44.7917C64.75 43.6641 63.8359 42.75 62.7083 42.75L59.7917 42.75C58.6641 42.75 57.75 43.6641 57.75 44.7917ZM59.5 44.7917C59.5 44.6306 59.6306 44.5 59.7917 44.5L62.7083 44.5C62.8694 44.5 63 44.6306 63 44.7917L63 47.7083C63 47.8694 62.8694 48 62.7083 48L59.7917 48C59.6306 48 59.5 47.8694 59.5 47.7083L59.5 44.7917ZM75.25 44.7917L75.25 47.7083C75.25 48.8359 76.1641 49.75 77.2917 49.75L80.2083 49.75C81.3359 49.75 82.25 48.8359 82.25 47.7083L82.25 44.7917C82.25 43.6641 81.3359 42.75 80.2083 42.75L77.2917 42.75C76.1641 42.75 75.25 43.6641 75.25 44.7917ZM77 44.7917C77 44.6306 77.1306 44.5 77.2917 44.5L80.2083 44.5C80.3694 44.5 80.5 44.6306 80.5 44.7917L80.5 47.7083C80.5 47.8694 80.3694 48 80.2083 48L77.2917 48C77.1306 48 77 47.8694 77 47.7083L77 44.7917ZM59.5 56.75L59.5 52.375C59.5 51.8917 59.1082 51.5 58.625 51.5C58.1417 51.5 57.75 51.8917 57.75 52.375L57.75 57.625C57.75 58.1082 58.1417 58.5 58.625 58.5L62.125 58.5C62.6082 58.5 63 58.1082 63 57.625C63 57.1417 62.6082 56.75 62.125 56.75L59.5 56.75ZM63 52.375C63 51.8917 62.6082 51.5 62.125 51.5C61.6417 51.5 61.25 51.8917 61.25 52.375L61.25 54.125C61.25 54.6082 61.6417 55 62.125 55C62.6082 55 63 54.6082 63 54.125L63 52.375ZM73.5 43.625C73.5 43.1418 73.1082 42.75 72.625 42.75C72.1417 42.75 71.75 43.1418 71.75 43.625L71.75 47.125C71.75 47.6082 72.1417 48 72.625 48C73.1082 48 73.5 47.6082 73.5 47.125L73.5 43.625ZM73.5 50.625C73.5 50.1418 73.1082 49.75 72.625 49.75C72.1417 49.75 71.75 50.1418 71.75 50.625L71.75 52.375C71.75 52.8582 72.1417 53.25 72.625 53.25C73.1082 53.25 73.5 52.8582 73.5 52.375L73.5 50.625ZM80.5 53.25L81.375 53.25C81.8582 53.25 82.25 52.8582 82.25 52.375C82.25 51.8917 81.8582 51.5 81.375 51.5L79.625 51.5C79.1417 51.5 78.75 51.8917 78.75 52.375L78.75 55.875C78.75 56.3582 79.1417 56.75 79.625 56.75C80.1082 56.75 80.5 56.3582 80.5 55.875L80.5 53.25ZM68.25 49.75L68.25 50.625C68.25 51.1082 68.6417 51.5 69.125 51.5C69.6082 51.5 70 51.1082 70 50.625L70 48.875C70 48.3918 69.6082 48 69.125 48L68.25 48L68.25 47.125C68.25 46.6418 67.8582 46.25 67.375 46.25C66.8917 46.25 66.5 46.6417 66.5 47.125L66.5 48.875C66.5 49.3582 66.8917 49.75 67.375 49.75L68.25 49.75ZM67.375 42.75C66.8917 42.75 66.5 43.1418 66.5 43.625C66.5 44.1082 66.8917 44.5 67.375 44.5L69.125 44.5C69.6082 44.5 70 44.1082 70 43.625C70 43.1418 69.6082 42.75 69.125 42.75L67.375 42.75ZM67.375 60.25C66.8917 60.25 66.5 60.6417 66.5 61.125C66.5 61.6082 66.8917 62 67.375 62L70.875 62C71.3582 62 71.75 61.6082 71.75 61.125C71.75 60.6417 71.3582 60.25 70.875 60.25L67.375 60.25ZM75.25 63.75L74.375 63.75C73.8917 63.75 73.5 64.1417 73.5 64.625L73.5 66.375C73.5 66.8582 73.8917 67.25 74.375 67.25C74.8582 67.25 75.25 66.8582 75.25 66.375L75.25 65.5L76.125 65.5C76.6082 65.5 77 65.1082 77 64.625L77 61.125C77 60.6417 76.6082 60.25 76.125 60.25L74.375 60.25C73.8917 60.25 73.5 60.6417 73.5 61.125C73.5 61.6082 73.8917 62 74.375 62L75.25 62L75.25 63.75ZM60.375 39.25C60.8582 39.25 61.25 38.8582 61.25 38.375C61.25 37.8918 60.8582 37.5 60.375 37.5L56.875 37.5C54.4588 37.5 52.5 39.4588 52.5 41.875L52.5 45.375C52.5 45.8582 52.8918 46.25 53.375 46.25C53.8582 46.25 54.25 45.8582 54.25 45.375L54.25 41.875C54.25 40.4253 55.4253 39.25 56.875 39.25L60.375 39.25ZM54.25 64.625C54.25 64.1417 53.8582 63.75 53.375 63.75C52.8917 63.75 52.5 64.1417 52.5 64.625L52.5 68.125C52.5 70.5412 54.4588 72.5 56.875 72.5L60.375 72.5C60.8582 72.5 61.25 72.1082 61.25 71.625C61.25 71.1417 60.8582 70.75 60.375 70.75L56.875 70.75C55.4253 70.75 54.25 69.5747 54.25 68.125L54.25 64.625ZM85.75 45.375C85.75 45.8582 86.1417 46.25 86.625 46.25C87.1082 46.25 87.5 45.8582 87.5 45.375L87.5 41.875C87.5 39.4588 85.5412 37.5 83.125 37.5L79.625 37.5C79.1417 37.5 78.75 37.8918 78.75 38.375C78.75 38.8583 79.1417 39.25 79.625 39.25L83.125 39.25C84.5747 39.25 85.75 40.4253 85.75 41.875L85.75 45.375ZM79.625 70.75C79.1417 70.75 78.75 71.1417 78.75 71.625C78.75 72.1082 79.1417 72.5 79.625 72.5L83.125 72.5C85.5412 72.5 87.5 70.5412 87.5 68.125L87.5 64.625C87.5 64.1417 87.1082 63.75 86.625 63.75C86.1417 63.75 85.75 64.1417 85.75 64.625L85.75 68.125C85.75 69.5747 84.5747 70.75 83.125 70.75L79.625 70.75Z" fill="#0085FF"/>
<defs>
<filter id="filter0_d_5_49" x="0.0928955" y="0" width="138.814" height="158" filterUnits="userSpaceOnUse" color-interpolation-filters="sRGB">
<feFlood flood-opacity="0" result="BackgroundImageFix"/>
<feColorMatrix in="SourceAlpha" type="matrix" values="0 0 0 0 0 0 0 0 0 0 0 0 0 0 0 0 0 0 127 0" result="hardAlpha"/>
<feOffset dy="16"/>
<feGaussianBlur stdDeviation="20"/>
<feColorMatrix type="matrix" values="0 0 0 0 0.314315 0 0 0 0 0.376772 0 0 0 0 0.406356 0 0 0 0.35 0"/>
<feBlend mode="normal" in2="BackgroundImageFix" result="effect1_dropShadow_5_49"/>
<feBlend mode="normal" in="SourceGraphic" in2="effect1_dropShadow_5_49" result="shape"/>
</filter>
<linearGradient id="paint0_linear_5_49" x1="98.907" y1="121.5" x2="143.814" y2="53.778" gradientUnits="userSpaceOnUse">
<stop stop-color="#4FACFE"/>
<stop offset="1" stop-color="#00F2FE"/>
</linearGradient>
</defs>
</svg>
