<svg width="314" height="314" viewBox="0 0 314 314" fill="none" xmlns="http://www.w3.org/2000/svg">
<path d="M0 9.8125C0 7.21006 1.03381 4.71422 2.87402 2.87402C4.71422 1.03381 7.21006 0 9.8125 0L68.6875 0C71.2899 0 73.7858 1.03381 75.626 2.87402C77.4662 4.71422 78.5 7.21006 78.5 9.8125C78.5 12.4149 77.4662 14.9108 75.626 16.751C73.7858 18.5912 71.2899 19.625 68.6875 19.625H40.625C29.027 19.625 19.625 29.027 19.625 40.625V68.6875C19.625 71.2899 18.5912 73.7858 16.751 75.626C14.9108 77.4662 12.4149 78.5 9.8125 78.5C7.21006 78.5 4.71422 77.4662 2.87402 75.626C1.03381 73.7858 0 71.2899 0 68.6875V9.8125ZM235.5 9.8125C235.5 7.21006 236.534 4.71422 238.374 2.87402C240.214 1.03381 242.71 0 245.313 0L304.188 0C306.79 0 309.286 1.03381 311.126 2.87402C312.966 4.71422 314 7.21006 314 9.8125V68.6875C314 71.2899 312.966 73.7858 311.126 75.626C309.286 77.4662 306.79 78.5 304.188 78.5C301.585 78.5 299.089 77.4662 297.249 75.626C295.409 73.7858 294.375 71.2899 294.375 68.6875V40.625C294.375 29.027 284.973 19.625 273.375 19.625H245.313C242.71 19.625 240.214 18.5912 238.374 16.751C236.534 14.9108 235.5 12.4149 235.5 9.8125ZM9.8125 235.5C12.4149 235.5 14.9108 236.534 16.751 238.374C18.5912 240.214 19.625 242.71 19.625 245.313V273.375C19.625 284.973 29.027 294.375 40.625 294.375H68.6875C71.2899 294.375 73.7858 295.409 75.626 297.249C77.4662 299.089 78.5 301.585 78.5 304.188C78.5 306.79 77.4662 309.286 75.626 311.126C73.7858 312.966 71.2899 314 68.6875 314H9.8125C7.21006 314 4.71422 312.966 2.87402 311.126C1.03381 309.286 0 306.79 0 304.188V245.313C0 242.71 1.03381 240.214 2.87402 238.374C4.71422 236.534 7.21006 235.5 9.8125 235.5ZM304.188 235.5C306.79 235.5 309.286 236.534 311.126 238.374C312.966 240.214 314 242.71 314 245.313V304.188C314 306.79 312.966 309.286 311.126 311.126C309.286 312.966 306.79 314 304.188 314H245.313C242.71 314 240.214 312.966 238.374 311.126C236.534 309.286 235.5 306.79 235.5 304.188C235.5 301.585 236.534 299.089 238.374 297.249C240.214 295.409 242.71 294.375 245.313 294.375H273.375C284.973 294.375 294.375 284.973 294.375 273.375V245.313C294.375 242.71 295.409 240.214 297.249 238.374C299.089 236.534 301.585 235.5 304.188 235.5Z" fill="black"/>
</svg>
