<svg width="27" height="27" viewBox="0 0 27 27" fill="none" xmlns="http://www.w3.org/2000/svg">
<path fill-rule="evenodd" clip-rule="evenodd" d="M13.3521 2.7886C9.2641 2.7886 5.95776 6.09494 5.95776 10.183C5.95776 14.5879 10.6268 20.6618 12.5493 22.9752C12.9718 23.4823 13.743 23.4823 14.1655 22.9752C16.0775 20.6618 20.7465 14.5879 20.7465 10.183C20.7465 6.09494 17.4402 2.7886 13.3521 2.7886ZM13.3521 12.8238C11.8944 12.8238 10.7113 11.6407 10.7113 10.183C10.7113 8.72522 11.8944 7.54213 13.3521 7.54213C14.8099 7.54213 15.993 8.72522 15.993 10.183C15.993 11.6407 14.8099 12.8238 13.3521 12.8238Z" fill="#3998E8"/>
</svg>
